<svg xmlns="http://www.w3.org/2000/svg" width="157" height="154" viewBox="0 0 157 154" fill="none">
  <path d="M1.99902 76.7407C1.99902 97.0937 10.0842 116.613 24.4759 131.005C38.8676 145.396 58.3869 153.481 78.7398 153.481C99.0927 153.481 118.612 145.396 133.004 131.005C147.395 116.613 155.481 97.0937 155.481 76.7407C155.481 56.3878 147.395 36.8685 133.004 22.4768C118.612 8.08516 99.0927 0 78.7398 0C58.3869 0 38.8676 8.08516 24.4759 22.4768C10.0842 36.8685 1.99902 56.3878 1.99902 76.7407Z" fill="#D9EDFF"/>
  <mask id="mask0_12333_183518" style="mask-type:luminance" maskUnits="userSpaceOnUse" x="28" y="25" width="129" height="76">
    <path d="M156.821 25.8288H28.2695V100.48H156.821V25.8288Z" fill="white"/>
  </mask>
  <g mask="url(#mask0_12333_183518)">
    <path d="M44.9062 27.6001H120.543C126.589 27.6001 131.514 34.3762 131.514 42.696V52.5601C131.514 56.8486 128.958 60.3653 125.841 60.3653H58.1215C55.0046 60.3653 52.4488 56.8486 52.4488 52.5601V41.8385C52.4488 37.8071 51.3892 33.7757 49.3944 30.7734C48.2101 28.9722 46.7141 27.6001 44.9062 27.6001Z" fill="#EEF1FF"/>
  </g>
  <mask id="mask1_12333_183518" style="mask-type:luminance" maskUnits="userSpaceOnUse" x="25" y="99" width="118" height="43">
    <path d="M142.142 99.4673H25.9902V141.474H142.142V99.4673Z" fill="white"/>
  </mask>
  <g mask="url(#mask1_12333_183518)">
    <path d="M44.9062 133.313H120.371C126.417 133.313 131.342 126.537 131.342 118.217V108.353C131.342 104.064 128.786 100.547 125.669 100.547H58.1215C55.0046 100.547 52.449 104.064 52.449 108.353V119.074C52.449 123.106 51.3892 127.137 49.3944 130.139C48.2101 131.94 46.7141 133.313 44.9062 133.313Z" fill="#EEF1FF"/>
  </g>
  <mask id="mask2_12333_183518" style="mask-type:luminance" maskUnits="userSpaceOnUse" x="17" y="15" width="123" height="121">
    <path d="M139.866 15.2005H17.3877V135.148H139.866V15.2005Z" fill="white"/>
  </mask>
  <g mask="url(#mask2_12333_183518)">
    <path d="M113.571 130.139C110.812 127.137 109.347 123.106 109.347 119.074V111.854H109.487V53.2603C109.508 53.0295 109.519 52.7962 109.519 52.5603V41.8384C109.519 37.8071 110.985 33.7759 113.743 30.7739C115.381 28.9727 117.45 27.6001 119.95 27.6001H45.6384C37.276 27.6001 30.4656 34.3762 30.4656 42.696V49.0591H30.293V118.216C30.293 126.536 37.1037 133.313 45.4658 133.313H119.778C117.278 133.313 115.209 131.94 113.571 130.139Z" fill="#D9DFFF"/>
  </g>
  <mask id="mask3_12333_183518" style="mask-type:alpha" maskUnits="userSpaceOnUse" x="30" y="27" width="90" height="107">
    <mask id="mask4_12333_183518" style="mask-type:luminance" maskUnits="userSpaceOnUse" x="17" y="15" width="123" height="121">
      <path d="M139.87 15.2005H17.3926V135.148H139.87V15.2005Z" fill="white"/>
    </mask>
    <g mask="url(#mask4_12333_183518)">
      <path d="M113.573 130.139C110.814 127.137 109.349 123.106 109.349 119.074V111.854H109.489V53.2603C109.51 53.0295 109.521 52.7962 109.521 52.5603V41.8384C109.521 37.8071 110.987 33.7759 113.745 30.7739C115.383 28.9727 117.452 27.6001 119.952 27.6001H45.6403C37.2779 27.6001 30.4675 34.3762 30.4675 42.696V49.0591H30.2949V118.216C30.2949 126.536 37.1056 133.313 45.4678 133.313H119.78C117.28 133.313 115.211 131.94 113.573 130.139Z" fill="#D9DFFF"/>
    </g>
  </mask>
  <g mask="url(#mask3_12333_183518)">
    <path d="M47.5186 115.865H94.5263M47.5186 104.528H94.5263M47.2686 90.6337H94.5263M47.5186 76.6659H94.5263M47.5186 65.3291H94.5263M47.2686 51.4345H94.5263" stroke="white" stroke-width="4.26927" stroke-linecap="round" stroke-linejoin="round"/>
  </g>
  <mask id="mask5_12333_183518" style="mask-type:luminance" maskUnits="userSpaceOnUse" x="0" y="35" width="61" height="62">
    <path d="M0.179688 35.9509H60.9125V96.6838H0.179688V35.9509Z" fill="white"/>
  </mask>
  <g mask="url(#mask5_12333_183518)">
    <path d="M31.8412 47.0498L35.0388 45.4861C36.5141 44.765 38.298 45.3428 39.0677 46.7961L40.737 49.9407C41.1783 50.7701 41.9771 51.3502 42.9025 51.513L46.4089 52.1282C48.0275 52.4128 49.1279 53.9279 48.8985 55.5554L48.4002 59.0792C48.2683 60.0097 48.5737 60.9488 49.2271 61.624L51.7015 64.182C52.8437 65.3618 52.8437 67.2364 51.7015 68.4183L49.2271 70.9763C48.5737 71.6515 48.2686 72.5909 48.4002 73.5213L48.8985 77.0452C49.1279 78.6727 48.0275 80.1878 46.4089 80.4721L42.9025 81.0873C41.9771 81.2501 41.1783 81.8302 40.737 82.6596L39.0677 85.8042C38.298 87.2555 36.5164 87.8353 35.0388 87.1142L31.8412 85.5508C30.9974 85.1384 30.0102 85.1384 29.1663 85.5508L25.9686 87.1142C24.4932 87.8353 22.7093 87.2575 21.9396 85.8042L20.2703 82.6576C19.829 81.8282 19.0302 81.2481 18.1048 81.0851L14.5984 80.4698C12.9798 80.1855 11.8794 78.6704 12.1088 77.0429L12.6071 73.5191C12.739 72.5886 12.4336 71.6495 11.7802 70.9743L9.30601 68.416C8.16362 67.2364 8.16362 65.3618 9.30601 64.18L11.7802 61.6218C12.4336 60.9465 12.739 60.0074 12.6071 59.077L12.1111 55.5531C11.8794 53.9279 12.982 52.4105 14.6007 52.1282L18.1071 51.513C19.0317 51.3494 19.8295 50.7696 20.2703 49.9407L21.9396 46.7961C22.7093 45.3451 24.4912 44.765 25.9686 45.4861L29.1663 47.0498C30.0104 47.462 30.9971 47.462 31.8412 47.0498Z" fill="#FDAC1C"/>
    <path d="M31.8412 47.0498L35.0388 45.4861C36.5141 44.765 38.298 45.3428 39.0677 46.7961L40.737 49.9407C41.1783 50.7701 41.9771 51.3502 42.9025 51.513L46.4089 52.1282C48.0275 52.4128 49.1279 53.9279 48.8985 55.5554L48.4002 59.0792C48.2683 60.0097 48.5737 60.9488 49.2271 61.624L51.7015 64.182C52.8437 65.3618 52.8437 67.2364 51.7015 68.4183L49.2271 70.9763C48.5737 71.6515 48.2686 72.5909 48.4002 73.5213L48.8985 77.0452C49.1279 78.6727 48.0275 80.1878 46.4089 80.4721L42.9025 81.0873C41.9771 81.2501 41.1783 81.8302 40.737 82.6596L39.0677 85.8042C38.298 87.2555 36.5164 87.8353 35.0388 87.1142L31.8412 85.5508C30.9974 85.1384 30.0102 85.1384 29.1663 85.5508L25.9686 87.1142C24.4932 87.8353 22.7093 87.2575 21.9396 85.8042L20.2703 82.6576C19.829 81.8282 19.0302 81.2481 18.1048 81.0851L14.5984 80.4698C12.9798 80.1855 11.8794 78.6704 12.1088 77.0429L12.6071 73.5191C12.739 72.5886 12.4336 71.6495 11.7802 70.9743L9.30601 68.416C8.16362 67.2364 8.16362 65.3618 9.30601 64.18L11.7802 61.6218C12.4336 60.9465 12.739 60.0074 12.6071 59.077L12.1111 55.5531C11.8794 53.9279 12.982 52.4105 14.6007 52.1282L18.1071 51.513C19.0317 51.3494 19.8295 50.7696 20.2703 49.9407L21.9396 46.7961C22.7093 45.3451 24.4912 44.765 25.9686 45.4861L29.1663 47.0498C30.0104 47.462 30.9971 47.462 31.8412 47.0498Z" stroke="#FDAC1C" stroke-width="1.88979" stroke-linecap="round" stroke-linejoin="round"/>
    <path d="M30.5534 53.0277C37.936 53.0277 43.9301 59.0218 43.9301 66.4044C43.9301 73.787 37.936 79.781 30.5534 79.781C23.1708 79.781 17.1768 73.787 17.1768 66.4044C17.1768 59.0218 23.1708 53.0277 30.5534 53.0277Z" fill="white"/>
    <path d="M30.3744 71.1177L33.8163 72.9257C34.4866 73.2782 35.2701 72.7094 35.1417 71.9623L34.4848 68.1297L37.2698 65.4177C37.8117 64.8889 37.5129 63.9676 36.764 63.8584L32.9162 63.2993L31.1962 59.8113C30.8609 59.1313 29.8937 59.1313 29.5584 59.8113L27.8384 63.2993L23.9885 63.8605C23.2397 63.9696 22.9409 64.8909 23.4831 65.4194L26.268 68.1317L25.6108 71.9643C25.4827 72.7112 26.266 73.2802 26.9363 72.9277L30.3782 71.1195H30.3744V71.1177Z" fill="#FDAC1C"/>
  </g>
  <mask id="mask6_12333_183518" style="mask-type:luminance" maskUnits="userSpaceOnUse" x="83" y="71" width="50" height="49">
    <path d="M83.9365 71.763H132.017V119.843H83.9365V71.763Z" fill="white"/>
  </mask>
  <g mask="url(#mask6_12333_183518)">
    <path d="M107.978 77.696C117.978 77.696 126.085 85.8029 126.085 95.8031C126.085 105.803 117.978 113.91 107.978 113.91C97.978 113.91 89.8711 105.803 89.8711 95.8031C89.8711 85.8029 97.978 77.696 107.978 77.696Z" fill="#00DB6F"/>
    <path d="M113.929 92.6375L106.015 100.488L101.267 95.7778" stroke="white" stroke-width="2.60514" stroke-linecap="round" stroke-linejoin="round"/>
  </g>
  <path d="M49.8506 140.705C49.8506 141.588 52.8924 142.435 58.3069 143.06C63.7214 143.684 71.0651 144.035 78.7224 144.035C86.3796 144.035 93.7233 143.684 99.1378 143.06C104.552 142.435 107.594 141.588 107.594 140.705C107.594 139.821 104.552 138.974 99.1378 138.349C93.7233 137.725 86.3796 137.374 78.7224 137.374C71.0651 137.374 63.7214 137.725 58.3069 138.349C52.8924 138.974 49.8506 139.821 49.8506 140.705Z" fill="#B0D9FF"/>
</svg>